<svg id="visual" viewBox="0 0 900 600" width="900" height="600" xmlns="http://www.w3.org/2000/svg" xmlns:xlink="http://www.w3.org/1999/xlink" version="1.1"><rect x="0" y="0" width="900" height="600" fill="#daecf0"></rect><path d="M0 391L21.5 395.7C43 400.3 86 409.7 128.8 404.8C171.7 400 214.3 381 257.2 375C300 369 343 376 385.8 374.3C428.7 372.7 471.3 362.3 514.2 367C557 371.7 600 391.3 642.8 402.5C685.7 413.7 728.3 416.3 771.2 413.2C814 410 857 401 878.5 396.5L900 392L900 601L878.5 601C857 601 814 601 771.2 601C728.3 601 685.7 601 642.8 601C600 601 557 601 514.2 601C471.3 601 428.7 601 385.8 601C343 601 300 601 257.2 601C214.3 601 171.7 601 128.8 601C86 601 43 601 21.5 601L0 601Z" fill="#daecf0"></path><path d="M0 432L21.5 428.8C43 425.7 86 419.3 128.8 423.7C171.7 428 214.3 443 257.2 443C300 443 343 428 385.8 419.3C428.7 410.7 471.3 408.3 514.2 419.3C557 430.3 600 454.7 642.8 454.5C685.7 454.3 728.3 429.7 771.2 424.7C814 419.7 857 434.3 878.5 441.7L900 449L900 601L878.5 601C857 601 814 601 771.2 601C728.3 601 685.7 601 642.8 601C600 601 557 601 514.2 601C471.3 601 428.7 601 385.8 601C343 601 300 601 257.2 601C214.3 601 171.7 601 128.8 601C86 601 43 601 21.5 601L0 601Z" fill="#c3e4ec"></path><path d="M0 464L21.5 469C43 474 86 484 128.8 482.3C171.7 480.7 214.3 467.3 257.2 462.8C300 458.3 343 462.7 385.8 469C428.7 475.3 471.3 483.7 514.2 486.8C557 490 600 488 642.8 488C685.7 488 728.3 490 771.2 489.8C814 489.7 857 487.3 878.5 486.2L900 485L900 601L878.5 601C857 601 814 601 771.2 601C728.3 601 685.7 601 642.8 601C600 601 557 601 514.2 601C471.3 601 428.7 601 385.8 601C343 601 300 601 257.2 601C214.3 601 171.7 601 128.8 601C86 601 43 601 21.5 601L0 601Z" fill="#acdbe9"></path><path d="M0 499L21.5 500.3C43 501.7 86 504.3 128.8 503.5C171.7 502.7 214.3 498.3 257.2 503.2C300 508 343 522 385.8 526.7C428.7 531.3 471.3 526.7 514.2 520.3C557 514 600 506 642.8 509.3C685.7 512.7 728.3 527.3 771.2 533.3C814 539.3 857 536.7 878.5 535.3L900 534L900 601L878.5 601C857 601 814 601 771.2 601C728.3 601 685.7 601 642.8 601C600 601 557 601 514.2 601C471.3 601 428.7 601 385.8 601C343 601 300 601 257.2 601C214.3 601 171.7 601 128.8 601C86 601 43 601 21.5 601L0 601Z" fill="#94d2e7"></path><path d="M0 525L21.5 526C43 527 86 529 128.8 536.2C171.7 543.3 214.3 555.7 257.2 556.5C300 557.3 343 546.7 385.8 546.5C428.7 546.3 471.3 556.7 514.2 555.3C557 554 600 541 642.8 540C685.7 539 728.3 550 771.2 550.7C814 551.3 857 541.7 878.5 536.8L900 532L900 601L878.5 601C857 601 814 601 771.2 601C728.3 601 685.7 601 642.8 601C600 601 557 601 514.2 601C471.3 601 428.7 601 385.8 601C343 601 300 601 257.2 601C214.3 601 171.7 601 128.8 601C86 601 43 601 21.5 601L0 601Z" fill="#7ac9e6"></path></svg>